# Apple ModelIO OBJ File: cube
mtllib cube.mtl
g 
v 0 0 0
v 1 1 0
v 1 0 0
v 0 1 0
vn 0 0 -1
usemtl front
f 1//1 2//1 3//1
f 1//1 4//1 2//1
s off
g _1
v 0 0 0
v 0 1 1
v 0 1 0
v 0 0 1
vn -1 0 0
usemtl back
f 5//2 6//2 7//2
f 5//2 8//2 6//2
s off
g _2
v 0 1 0
v 1 1 1
v 1 1 0
v 0 1 1
vn 0 1 0
usemtl top
f 9//3 10//3 11//3
f 9//3 12//3 10//3
s off
g _3
v 1 0 0
v 1 1 0
v 1 1 1
v 1 0 1
vn 1 0 0
usemtl bottom
f 13//4 14//4 15//4
f 13//4 15//4 16//4
s off
g _4
v 0 0 0
v 1 0 0
v 1 0 1
v 0 0 1
vn 0 -1 0
usemtl left
f 17//5 18//5 19//5
f 17//5 19//5 20//5
s off
g _5
v 0 0 1
v 1 1 1
v 0 1 1
v 1 0 1
vn 0 0 1
usemtl right
f 21//6 22//6 23//6
f 21//6 24//6 22//6
s off
